<svg width="100" height="100" viewBox="0 0 100 100" fill="none" xmlns="http://www.w3.org/2000/svg">
<path d="M22.1973 74H7.6092V26.7273H22.8436C27.4293 26.7273 31.3533 27.6736 34.6156 29.5664C37.8779 31.4438 40.3785 34.1444 42.1174 37.6683C43.8562 41.1768 44.7257 45.3778 44.7257 50.2713C44.7257 55.1955 43.8485 59.435 42.0943 62.9897C40.34 66.529 37.7856 69.2527 34.4309 71.1609C31.0763 73.0536 26.9984 74 22.1973 74ZM13.3336 68.9219H21.8279C25.7366 68.9219 28.9758 68.1679 31.5456 66.6598C34.1155 65.1518 36.0313 63.0051 37.2931 60.2198C38.555 57.4345 39.1859 54.1184 39.1859 50.2713C39.1859 46.455 38.5627 43.1696 37.3162 40.4151C36.0698 37.6452 34.2078 35.5217 31.7303 34.0444C29.2528 32.5517 26.1674 31.8054 22.4743 31.8054H13.3336V68.9219ZM94.2143 50.3636C94.2143 55.3494 93.3141 59.6581 91.5137 63.2898C89.7132 66.9214 87.2434 69.7221 84.1042 71.6918C80.965 73.6615 77.3796 74.6463 73.3478 74.6463C69.3161 74.6463 65.7306 73.6615 62.5914 71.6918C59.4522 69.7221 56.9824 66.9214 55.182 63.2898C53.3816 59.6581 52.4814 55.3494 52.4814 50.3636C52.4814 45.3778 53.3816 41.0691 55.182 37.4375C56.9824 33.8059 59.4522 31.0052 62.5914 29.0355C65.7306 27.0658 69.3161 26.081 73.3478 26.081C77.3796 26.081 80.965 27.0658 84.1042 29.0355C87.2434 31.0052 89.7132 33.8059 91.5137 37.4375C93.3141 41.0691 94.2143 45.3778 94.2143 50.3636ZM88.6745 50.3636C88.6745 46.2704 87.9898 42.8157 86.6202 39.9996C85.266 37.1836 83.4271 35.0523 81.1035 33.6058C78.7953 32.1593 76.2101 31.4361 73.3478 31.4361C70.4856 31.4361 67.8927 32.1593 65.5691 33.6058C63.2608 35.0523 61.4219 37.1836 60.0524 39.9996C58.6982 42.8157 58.0211 46.2704 58.0211 50.3636C58.0211 54.4569 58.6982 57.9116 60.0524 60.7276C61.4219 63.5437 63.2608 65.675 65.5691 67.1214C67.8927 68.5679 70.4856 69.2912 73.3478 69.2912C76.2101 69.2912 78.7953 68.5679 81.1035 67.1214C83.4271 65.675 85.266 63.5437 86.6202 60.7276C87.9898 57.9116 88.6745 54.4569 88.6745 50.3636Z" fill="black"/>
<rect x="3" y="46" width="94" height="10" fill="white"/>
<path d="M9.95869 54H7.9388V47.4545H10.0482C10.6831 47.4545 11.2264 47.5856 11.6782 47.8477C12.1299 48.1076 12.4761 48.4815 12.7169 48.9695C12.9576 49.4553 13.078 50.0369 13.078 50.7145C13.078 51.3963 12.9566 51.9833 12.7137 52.4755C12.4708 52.9656 12.1171 53.3427 11.6526 53.6069C11.1881 53.869 10.6235 54 9.95869 54ZM8.73142 53.2969H9.90755C10.4487 53.2969 10.8973 53.1925 11.2531 52.9837C11.6089 52.7749 11.8742 52.4776 12.0489 52.092C12.2236 51.7063 12.311 51.2472 12.311 50.7145C12.311 50.1861 12.2247 49.7312 12.0521 49.3498C11.8795 48.9663 11.6217 48.6722 11.2786 48.4677C10.9356 48.261 10.5084 48.1577 9.99704 48.1577H8.73142V53.2969ZM16.1053 54V49.0909H16.834V49.858H16.8979C17.0002 49.5959 17.1653 49.3924 17.3933 49.2475C17.6213 49.1005 17.8951 49.027 18.2147 49.027C18.5385 49.027 18.8081 49.1005 19.0233 49.2475C19.2406 49.3924 19.41 49.5959 19.5314 49.858H19.5826C19.7083 49.6044 19.8968 49.4031 20.1483 49.2539C20.3997 49.1026 20.7012 49.027 21.0527 49.027C21.4916 49.027 21.8507 49.1644 22.1298 49.4393C22.4089 49.712 22.5485 50.1371 22.5485 50.7145V54H21.7942V50.7145C21.7942 50.3523 21.6951 50.0934 21.497 49.9379C21.2988 49.7823 21.0655 49.7045 20.797 49.7045C20.4519 49.7045 20.1845 49.8089 19.9948 50.0178C19.8052 50.2244 19.7104 50.4865 19.7104 50.804V54H18.9434V50.6378C18.9434 50.3587 18.8528 50.1339 18.6717 49.9634C18.4906 49.7908 18.2573 49.7045 17.9718 49.7045C17.7757 49.7045 17.5925 49.7567 17.422 49.8612C17.2537 49.9656 17.1174 50.1104 17.013 50.2958C16.9107 50.479 16.8595 50.6911 16.8595 50.9318V54H16.1053ZM25.7275 54V49.0909H26.4818V54H25.7275ZM26.1111 48.2727C25.9641 48.2727 25.8373 48.2227 25.7307 48.1225C25.6263 48.0224 25.5741 47.902 25.5741 47.7614C25.5741 47.6207 25.6263 47.5004 25.7307 47.4002C25.8373 47.3001 25.9641 47.25 26.1111 47.25C26.2581 47.25 26.3838 47.3001 26.4882 47.4002C26.5947 47.5004 26.648 47.6207 26.648 47.7614C26.648 47.902 26.5947 48.0224 26.4882 48.1225C26.3838 48.2227 26.2581 48.2727 26.1111 48.2727ZM31.7982 49.0909V49.7301H29.2542V49.0909H31.7982ZM29.9957 47.9148H30.7499V52.5938C30.7499 52.8068 30.7808 52.9666 30.8426 53.0732C30.9065 53.1776 30.9875 53.2479 31.0855 53.2841C31.1857 53.3182 31.2911 53.3352 31.4019 53.3352C31.485 53.3352 31.5532 53.331 31.6065 53.3224C31.6597 53.3118 31.7024 53.3033 31.7343 53.2969L31.8877 53.9744C31.8366 53.9936 31.7652 54.0128 31.6736 54.032C31.582 54.0533 31.4658 54.0639 31.3252 54.0639C31.1122 54.0639 30.9033 54.0181 30.6988 53.9265C30.4964 53.8349 30.3281 53.6953 30.1938 53.5078C30.0617 53.3203 29.9957 53.0838 29.9957 52.7983V47.9148ZM34.7328 54V49.0909H35.4615V49.8324H35.5127C35.6021 49.5895 35.7641 49.3924 35.9984 49.2411C36.2328 49.0898 36.497 49.0142 36.7911 49.0142C36.8465 49.0142 36.9157 49.0153 36.9988 49.0174C37.0819 49.0195 37.1448 49.0227 37.1874 49.027V49.794C37.1618 49.7876 37.1032 49.7781 37.0116 49.7653C36.9221 49.7504 36.8273 49.7429 36.7271 49.7429C36.4885 49.7429 36.2754 49.793 36.0879 49.8931C35.9026 49.9911 35.7555 50.1275 35.6469 50.3022C35.5403 50.4748 35.4871 50.6719 35.4871 50.8935V54H34.7328ZM40.5167 55.8409C40.3888 55.8409 40.2748 55.8303 40.1747 55.8089C40.0745 55.7898 40.0053 55.7706 39.9669 55.7514L40.1587 55.0866C40.3419 55.1335 40.5039 55.1506 40.6445 55.1378C40.7851 55.125 40.9098 55.0621 41.0184 54.9492C41.1292 54.8384 41.2304 54.6584 41.3221 54.4091L41.4627 54.0256L39.6473 49.0909H40.4655L41.8206 53.0028H41.8718L43.2269 49.0909H44.0451L41.9613 54.7159C41.8675 54.9695 41.7514 55.1793 41.6129 55.3455C41.4744 55.5138 41.3135 55.6385 41.1303 55.7195C40.9492 55.8004 40.7446 55.8409 40.5167 55.8409ZM56.7969 50.7273C56.7969 51.4176 56.6722 52.0142 56.4229 52.517C56.1737 53.0199 55.8317 53.4077 55.397 53.6804C54.9624 53.9531 54.4659 54.0895 53.9077 54.0895C53.3494 54.0895 52.853 53.9531 52.4183 53.6804C51.9837 53.4077 51.6417 53.0199 51.3924 52.517C51.1431 52.0142 51.0185 51.4176 51.0185 50.7273C51.0185 50.0369 51.1431 49.4403 51.3924 48.9375C51.6417 48.4347 51.9837 48.0469 52.4183 47.7741C52.853 47.5014 53.3494 47.3651 53.9077 47.3651C54.4659 47.3651 54.9624 47.5014 55.397 47.7741C55.8317 48.0469 56.1737 48.4347 56.4229 48.9375C56.6722 49.4403 56.7969 50.0369 56.7969 50.7273ZM56.0298 50.7273C56.0298 50.1605 55.935 49.6822 55.7454 49.2923C55.5579 48.9023 55.3033 48.6072 54.9815 48.407C54.6619 48.2067 54.304 48.1065 53.9077 48.1065C53.5114 48.1065 53.1524 48.2067 52.8306 48.407C52.511 48.6072 52.2564 48.9023 52.0668 49.2923C51.8793 49.6822 51.7855 50.1605 51.7855 50.7273C51.7855 51.294 51.8793 51.7724 52.0668 52.1623C52.2564 52.5522 52.511 52.8473 52.8306 53.0476C53.1524 53.2479 53.5114 53.348 53.9077 53.348C54.304 53.348 54.6619 53.2479 54.9815 53.0476C55.3033 52.8473 55.5579 52.5522 55.7454 52.1623C55.935 51.7724 56.0298 51.294 56.0298 50.7273ZM63.8416 49.0909L62.0262 54H61.2592L59.4438 49.0909H60.262L61.6171 53.0028H61.6683L63.0234 49.0909H63.8416ZM68.5196 54.1023C68.0466 54.1023 67.6385 53.9979 67.2955 53.7891C66.9546 53.5781 66.6915 53.2841 66.5061 52.907C66.3228 52.5277 66.2312 52.0866 66.2312 51.5838C66.2312 51.081 66.3228 50.6378 66.5061 50.2543C66.6915 49.8686 66.9493 49.5682 67.2795 49.353C67.6119 49.1357 67.9997 49.027 68.4429 49.027C68.6986 49.027 68.951 49.0696 69.2003 49.1548C69.4496 49.2401 69.6765 49.3786 69.8811 49.5703C70.0856 49.7599 70.2486 50.0114 70.3701 50.3246C70.4915 50.6378 70.5522 51.0234 70.5522 51.4815V51.8011H66.7682V51.1491H69.7852C69.7852 50.8722 69.7298 50.625 69.619 50.4077C69.5103 50.1903 69.3548 50.0188 69.1524 49.8931C68.9521 49.7674 68.7156 49.7045 68.4429 49.7045C68.1424 49.7045 67.8825 49.7791 67.663 49.9283C67.4457 50.0753 67.2785 50.267 67.1613 50.5036C67.0441 50.7401 66.9855 50.9936 66.9855 51.2642V51.6989C66.9855 52.0696 67.0494 52.3839 67.1772 52.6417C67.3072 52.8974 67.4873 53.0923 67.7174 53.2266C67.9475 53.3587 68.2149 53.4247 68.5196 53.4247C68.7177 53.4247 68.8967 53.397 69.0565 53.3416C69.2184 53.2841 69.358 53.1989 69.4752 53.0859C69.5924 52.9709 69.6829 52.8281 69.7468 52.6577L70.4755 52.8622C70.3988 53.1094 70.2699 53.3267 70.0888 53.5142C69.9077 53.6996 69.684 53.8445 69.4177 53.9489C69.1513 54.0511 68.852 54.1023 68.5196 54.1023ZM73.4996 54V49.0909H74.2283V49.8324H74.2795C74.3689 49.5895 74.5309 49.3924 74.7652 49.2411C74.9996 49.0898 75.2638 49.0142 75.5579 49.0142C75.6133 49.0142 75.6825 49.0153 75.7656 49.0174C75.8487 49.0195 75.9116 49.0227 75.9542 49.027V49.794C75.9286 49.7876 75.87 49.7781 75.7784 49.7653C75.6889 49.7504 75.5941 49.7429 75.4939 49.7429C75.2553 49.7429 75.0422 49.793 74.8547 49.8931C74.6694 49.9911 74.5223 50.1275 74.4137 50.3022C74.3071 50.4748 74.2539 50.6719 74.2539 50.8935V54H73.4996ZM79.3514 52.2102L79.3386 51.277H79.492L81.6397 49.0909H82.573L80.2846 51.4048H80.2207L79.3514 52.2102ZM78.6483 54V47.4545H79.4025V54H78.6483ZM81.7676 54L79.85 51.571L80.3869 51.0469L82.7264 54H81.7676ZM85.3438 54V49.0909H86.098V54H85.3438ZM85.7273 48.2727C85.5803 48.2727 85.4535 48.2227 85.3469 48.1225C85.2425 48.0224 85.1903 47.902 85.1903 47.7614C85.1903 47.6207 85.2425 47.5004 85.3469 47.4002C85.4535 47.3001 85.5803 47.25 85.7273 47.25C85.8743 47.25 86 47.3001 86.1044 47.4002C86.2109 47.5004 86.2642 47.6207 86.2642 47.7614C86.2642 47.902 86.2109 48.0224 86.1044 48.1225C86 48.2227 85.8743 48.2727 85.7273 48.2727ZM90.0338 51.0469V54H89.2795V49.0909H90.0082V49.858H90.0721C90.1872 49.6087 90.3619 49.4084 90.5963 49.2571C90.8306 49.1037 91.1332 49.027 91.5039 49.027C91.8363 49.027 92.1272 49.0952 92.3764 49.2315C92.6257 49.3658 92.8196 49.5703 92.9581 49.8452C93.0966 50.1179 93.1659 50.4631 93.1659 50.8807V54H92.4116V50.9318C92.4116 50.5462 92.3115 50.2457 92.1112 50.0305C91.9109 49.8132 91.636 49.7045 91.2866 49.7045C91.0458 49.7045 90.8306 49.7567 90.641 49.8612C90.4535 49.9656 90.3054 50.1179 90.1968 50.3182C90.0881 50.5185 90.0338 50.7614 90.0338 51.0469Z" fill="black"/>
</svg>
